<?xml version="1.0" encoding="utf-8"?>
<!-- Generator: Adobe Illustrator 24.0.0, SVG Export Plug-In . SVG Version: 6.00 Build 0)  -->
<svg version="1.1" id="Capa_1" xmlns="http://www.w3.org/2000/svg" xmlns:xlink="http://www.w3.org/1999/xlink" x="0px" y="0px"
	 viewBox="0 0 289 95" style="enable-background:new 0 0 289 95;" xml:space="preserve">
<style type="text/css">
	.st0{fill-rule:evenodd;clip-rule:evenodd;fill:#FFFFFF;}
	.st1{fill:#FFC220;}
</style>
<g>
	<g>
		<path class="st0" d="M24.8,19.7c0,0-5.9,20.1-9.9,36.3l-1.7,6.3c-0.7,2.9,1.2,3,1.2,3h11.1l-2.7,10.1H10.5l0.1,0
			c0,0-5.9,0.3-8.6-2.6c-2.7-2.9-2-6.3-1.8-8c0.2-1.4,5.4-21.2,5.4-21.2l6.7-24H24.8z"/>
		<path class="st0" d="M103.2,19.7l-9,36.5C88.7,75,69.6,75.4,69.6,75.4c-10.9,0.8-20.4-3.6-21.4-13.3C46.2,41.6,68.1,29,87.3,36.8
			c1.2-5.9,3.3-11.3,4.5-17.1H103.2z M63,49.3c-2.3,3.5-3.9,10.3-1.5,14.7c2.6,4.7,11.5,4.7,15.7,1.5c4.6-3.5,6.1-13.8,7.9-20.1
			C77.8,39,67.1,43.1,63,49.3"/>
		<path class="st0" d="M109.9,57.7c-2,13.1,17.7,11.1,24.1,6.1c-0.7,3-0.8,6.5-1.5,9.6c-15.5,4.7-33.1,1.3-34.6-12.5
			c-1.9-16.7,12-25.5,26.3-26.5c8.2-0.6,17.6,0.8,20.1,6.6c1.5,3.5,0.2,8.2-1.7,10.6C136.8,58.6,121.2,60.3,109.9,57.7 M121.5,51.3
			c4.9-0.3,13.6-2,12-6.6c-1-2.8-6.6-3.3-10.1-2.7c-5.3,1-9.2,4.9-11.3,8.6C114.7,51.2,118,51.5,121.5,51.3"/>
		<path class="st0" d="M182.1,35.1c0,0-3.1,8.8-3.2,9.1c-3.2-0.9-4.5-2.6-8.8-2.2c-11.2,1.1-13.8,15.3-15.9,26.7l-1.1,6.8h-11.5
			c3.1-13.2,6.4-27.3,9.6-40.4c3.7,0,7.7,0,11.4,0l-0.6,3.2C166.7,35.1,174.7,33.2,182.1,35.1"/>
		<path class="st0" d="M49.7,35.3c-2.9,13.3-6.4,26.8-9.3,40.2H28.6C31,64.9,33.5,54.3,36,43.8l-6.2,0l2.1-8.5L49.7,35.3z"/>
	</g>
	<path class="st0" d="M51.9,24.9c0,4.1-3.3,5.8-7.4,5.8c-4.1,0-7.4-2.6-7.4-5.8c0-3.2,3.3-5.8,7.4-5.8
		C48.5,19.1,51.9,21.7,51.9,24.9"/>
	<g>
		<path class="st1" d="M237.7,32c2.2,0,4.1-1.2,4.3-2.7l2.2-24.8c0-2.5-2.9-4.5-6.5-4.5c-3.6,0-6.5,2-6.5,4.5l2.2,24.8
			C233.6,30.8,235.5,32,237.7,32L237.7,32z"/>
		<path class="st1" d="M224.3,39.7c1.1-1.9,1-4.1-0.1-5l-20.4-14.3c-2.1-1.2-5.3,0.3-7.1,3.4c-1.8,3.1-1.5,6.6,0.6,7.9l22.6,10.5
			C221.2,42.7,223.2,41.6,224.3,39.7L224.3,39.7z"/>
		<path class="st1" d="M251.1,39.7c1.1,1.9,3,2.9,4.4,2.4l22.6-10.5c2.1-1.2,2.4-4.7,0.6-7.9c-1.8-3.1-5-4.6-7.1-3.4l-20.4,14.3
			C250.1,35.6,250,37.8,251.1,39.7L251.1,39.7z"/>
		<path class="st1" d="M237.7,63c2.2,0,4.1,1.2,4.3,2.6l2.2,24.9c0,2.5-2.9,4.5-6.5,4.5c-3.6,0-6.5-2-6.5-4.5l2.2-24.9
			C233.6,64.2,235.5,63,237.7,63L237.7,63z"/>
		<path class="st1" d="M251.1,55.3c1.1-1.9,3-2.9,4.4-2.4l22.6,10.5c2.1,1.2,2.4,4.7,0.6,7.9c-1.8,3.1-5,4.6-7.1,3.4l-20.4-14.3
			C250.1,59.3,250,57.2,251.1,55.3L251.1,55.3z"/>
		<path class="st1" d="M224.3,55.3c1.1,1.9,1,4.1-0.1,5.1l-20.4,14.3c-2.1,1.2-5.3-0.3-7.1-3.4c-1.8-3.1-1.5-6.6,0.6-7.9l22.6-10.5
			C221.2,52.3,223.2,53.3,224.3,55.3L224.3,55.3z"/>
		<g>
			<path class="st1" d="M285.5,71.5c0.6,0,1.2,0.2,1.7,0.5c0.6,0.3,1,0.7,1.3,1.3c0.3,0.6,0.5,1.2,0.5,1.8c0,0.6-0.2,1.2-0.5,1.8
				c-0.3,0.6-0.7,1-1.3,1.3c-0.6,0.3-1.2,0.5-1.8,0.5c-0.6,0-1.2-0.2-1.8-0.5c-0.6-0.3-1-0.7-1.3-1.3c-0.3-0.6-0.5-1.2-0.5-1.8
				c0-0.6,0.2-1.2,0.5-1.8c0.3-0.6,0.8-1,1.3-1.3C284.3,71.7,284.9,71.5,285.5,71.5z M285.5,72.1c-0.5,0-1,0.1-1.5,0.4
				c-0.5,0.3-0.8,0.6-1.1,1.1c-0.3,0.5-0.4,1-0.4,1.5c0,0.5,0.1,1,0.4,1.5c0.3,0.5,0.6,0.8,1.1,1.1c0.5,0.3,1,0.4,1.5,0.4
				c0.5,0,1-0.1,1.5-0.4c0.5-0.3,0.8-0.6,1.1-1.1c0.3-0.5,0.4-1,0.4-1.5c0-0.5-0.1-1-0.4-1.5c-0.3-0.5-0.6-0.8-1.1-1.1
				C286.4,72.2,286,72.1,285.5,72.1z M283.9,77v-3.8h1.3c0.4,0,0.8,0,1,0.1c0.2,0.1,0.4,0.2,0.5,0.4c0.1,0.2,0.2,0.4,0.2,0.6
				c0,0.3-0.1,0.5-0.3,0.7c-0.2,0.2-0.5,0.3-0.8,0.3c0.1,0.1,0.2,0.1,0.3,0.2c0.2,0.2,0.3,0.4,0.6,0.8l0.5,0.7h-0.8l-0.3-0.6
				c-0.3-0.5-0.5-0.8-0.6-0.9c-0.1-0.1-0.3-0.1-0.5-0.1h-0.4V77H283.9z M284.5,74.9h0.7c0.4,0,0.6-0.1,0.7-0.2
				c0.1-0.1,0.2-0.2,0.2-0.4c0-0.1,0-0.2-0.1-0.3c-0.1-0.1-0.1-0.2-0.3-0.2c-0.1,0-0.3-0.1-0.6-0.1h-0.7V74.9z"/>
		</g>
	</g>
</g>
</svg>
